<?xml version="1.0" encoding="UTF-8" standalone="no"?>

<svg
   width="6.5040588mm"
   height="6.5845947mm"
   viewBox="0 0 6.5040588 6.5845947"
   version="1.1"
   id="svg5"
   xmlns:inkscape="http://www.inkscape.org/namespaces/inkscape"
   xmlns:sodipodi="http://sodipodi.sourceforge.net/DTD/sodipodi-0.dtd"
   xmlns="http://www.w3.org/2000/svg"
   xmlns:svg="http://www.w3.org/2000/svg">
  <sodipodi:namedview
     id="namedview7"
     pagecolor="#ffffff"
     bordercolor="#000000"
     borderopacity="0.25"
     inkscape:showpageshadow="2"
     inkscape:pageopacity="0.0"
     inkscape:pagecheckerboard="0"
     inkscape:deskcolor="#d1d1d1"
     inkscape:document-units="mm"
     showgrid="false" />
  <defs
     id="defs2" />
  <g
     inkscape:label="Layer 1"
     inkscape:groupmode="layer"
     id="layer1"
     transform="translate(-92.286524,-192.76426)">
    <g
       id="g1394"
       transform="matrix(0.84603775,0,0,0.84603775,103.68691,7.7517659)"
       inkscape:export-filename="C.png"
       inkscape:export-xdpi="96"
       inkscape:export-ydpi="96">
      <rect
         style="fill:#fbf7ec;fill-opacity:1;stroke:none;stroke-width:1.32292;stroke-linecap:round"
         id="rect1390"
         width="109.74857"
         height="109.74857"
         x="24.930403"
         y="50.348488"
         ry="54.874287"
         inkscape:export-filename="C2.png"
         inkscape:export-xdpi="96"
         inkscape:export-ydpi="96" />
      <path
         id="path1392"
         style="fill:#303030;fill-opacity:1;stroke:none;stroke-width:0.954684;stroke-linecap:round"
         d="M 80.331531,65.622868 A 39.600002,39.600002 0 0 0 40.731364,105.22303 39.600002,39.600002 0 0 0 80.331531,144.82268 39.600002,39.600002 0 0 0 118.86871,114.29535 H 99.764453 A 21.454639,21.454639 0 0 1 80.331531,126.67754 21.454639,21.454639 0 0 1 58.877026,105.22303 21.454639,21.454639 0 0 1 80.331531,83.768014 21.454639,21.454639 0 0 1 99.772721,96.150203 H 118.87802 A 39.600002,39.600002 0 0 0 80.331531,65.622868 Z" />
      <path
         id="path1396"
         style="fill:none;fill-opacity:1;stroke:#303030;stroke-width:0.625465;stroke-linecap:round;stroke-linejoin:round;stroke-dasharray:none;stroke-opacity:1"
         d="m -9.5835754,218.99388 a 3.5787051,3.5787051 0 0 0 -3.5787196,3.57872 3.5787051,3.5787051 0 0 0 3.5787196,3.57867 3.5787051,3.5787051 0 0 0 3.4826562,-2.75879 h -1.7264772 a 1.9388844,1.9388844 0 0 1 -1.756179,1.11899 1.9388844,1.9388844 0 0 1 -1.9388726,-1.93887 1.9388844,1.9388844 0 0 1 1.9388726,-1.93892 1.9388844,1.9388844 0 0 1 1.7569262,1.119 h 1.7265713 a 3.5787051,3.5787051 0 0 0 -3.4834975,-2.7588 z"
         inkscape:export-filename="logoOnlyTextStroke.svg"
         inkscape:export-xdpi="96"
         inkscape:export-ydpi="96" />
    </g>
  </g>
</svg>
