<?xml version="1.0" encoding="UTF-8" standalone="no"?>
<!-- Created with Inkscape (http://www.inkscape.org/) -->

<svg
   width="11.262375mm"
   height="11.407028mm"
   viewBox="0 0 11.262375 11.407028"
   version="1.1"
   id="svg5"
   xmlns:inkscape="http://www.inkscape.org/namespaces/inkscape"
   xmlns:sodipodi="http://sodipodi.sourceforge.net/DTD/sodipodi-0.dtd"
   xmlns="http://www.w3.org/2000/svg"
   xmlns:svg="http://www.w3.org/2000/svg">
  <sodipodi:namedview
     id="namedview7"
     pagecolor="#ffffff"
     bordercolor="#000000"
     borderopacity="0.25"
     inkscape:showpageshadow="2"
     inkscape:pageopacity="0.0"
     inkscape:pagecheckerboard="0"
     inkscape:deskcolor="#d1d1d1"
     inkscape:document-units="mm"
     showgrid="false" />
  <defs
     id="defs2" />
  <g
     inkscape:label="Layer 1"
     inkscape:groupmode="layer"
     id="layer1"
     transform="translate(-95.515253,-193.74783)">
    <g
       id="g1394"
       transform="matrix(0.84603775,0,0,0.84603775,103.68691,7.7517659)"
       inkscape:export-filename="C.png"
       inkscape:export-xdpi="96"
       inkscape:export-ydpi="96">
      <rect
         style="fill:#fbf7ec;fill-opacity:1;stroke:none;stroke-width:1.32292;stroke-linecap:round"
         id="rect1390"
         width="109.74857"
         height="109.74857"
         x="24.930403"
         y="50.348488"
         ry="54.874287"
         inkscape:export-filename="C2.png"
         inkscape:export-xdpi="96"
         inkscape:export-ydpi="96" />
      <path
         id="path1392"
         style="fill:#303030;fill-opacity:1;stroke:none;stroke-width:0.954684;stroke-linecap:round"
         d="M 80.331531,65.622868 A 39.600002,39.600002 0 0 0 40.731364,105.22303 39.600002,39.600002 0 0 0 80.331531,144.82268 39.600002,39.600002 0 0 0 118.86871,114.29535 H 99.764453 A 21.454639,21.454639 0 0 1 80.331531,126.67754 21.454639,21.454639 0 0 1 58.877026,105.22303 21.454639,21.454639 0 0 1 80.331531,83.768014 21.454639,21.454639 0 0 1 99.772721,96.150203 H 118.87802 A 39.600002,39.600002 0 0 0 80.331531,65.622868 Z" />
      <path
         id="path1396"
         style="fill:none;fill-opacity:1;stroke:#303030;stroke-width:0.625465;stroke-linecap:round;stroke-linejoin:round;stroke-dasharray:none;stroke-opacity:1"
         d="m -2.9172506,220.15642 a 6.4287282,6.4287282 0 0 0 -6.4287549,6.42876 6.4287282,6.4287282 0 0 0 6.4287549,6.42867 6.4287282,6.4287282 0 0 0 6.2561876,-4.95586 H 0.23752117 a 3.4829807,3.4829807 0 0 1 -3.15477177,2.01015 3.4829807,3.4829807 0 0 1 -3.4829589,-3.48296 3.4829807,3.4829807 0 0 1 3.4829589,-3.48304 3.4829807,3.4829807 0 0 1 3.15611398,2.01014 H 3.3404484 a 6.4287282,6.4287282 0 0 0 -6.257699,-4.95586 z" />
    </g>
  </g>
</svg>
